<svg width="101" height="101" viewBox="0 0 101 101" fill="none" xmlns="http://www.w3.org/2000/svg">
<g clip-path="url(#clip0_389_2243)">
<path d="M53.2003 99.0403C78.3515 99.0403 98.7406 78.6512 98.7406 53.5C98.7406 28.3488 78.3515 7.95972 53.2003 7.95972C28.0491 7.95972 7.65997 28.3488 7.65997 53.5C7.65997 78.6512 28.0491 99.0403 53.2003 99.0403Z" fill="#EEEEEE"/>
<path d="M6.31799 27.3026H98.7728V86.1906C98.7728 86.9814 98.1653 87.5218 97.5382 87.5218H7.55263C6.92549 87.5218 6.31799 86.9814 6.31799 86.1906V27.3026Z" fill="#FFE600" stroke="white" stroke-width="3.9375"/>
<path d="M4.34924 49.5625V86.1906C4.34924 88.0131 5.78345 89.4906 7.55263 89.4906H97.5382C99.3073 89.4906 100.742 88.0131 100.742 86.1906V84.3438M4.34924 44.5176V25.3338H100.742V69.8037M100.742 75.1562V79.0938" stroke="#333333" stroke-width="1.96875"/>
<path fill-rule="evenodd" clip-rule="evenodd" d="M7.55282 16.0938H97.5557C99.3248 16.0937 100.759 17.61 100.759 19.4806V25.1012H4.34943V19.4806C4.34943 17.61 5.78364 16.0938 7.55282 16.0938Z" fill="white" stroke="#333333" stroke-width="1.96875"/>
<path d="M11.252 22.122C12.0941 22.122 12.7767 21.4395 12.7767 20.5975C12.7767 19.7555 12.0941 19.073 11.252 19.073C10.41 19.073 9.72742 19.7555 9.72742 20.5975C9.72742 21.4395 10.41 22.122 11.252 22.122Z" fill="#333333"/>
<path d="M18.0907 22.122C18.9327 22.122 19.6153 21.4395 19.6153 20.5975C19.6153 19.7555 18.9327 19.073 18.0907 19.073C17.2487 19.073 16.5661 19.7555 16.5661 20.5975C16.5661 21.4395 17.2487 22.122 18.0907 22.122Z" fill="#333333"/>
<path d="M25.1816 22.122C26.0236 22.122 26.7062 21.4395 26.7062 20.5975C26.7062 19.7555 26.0236 19.073 25.1816 19.073C24.3396 19.073 23.657 19.7555 23.657 20.5975C23.657 21.4395 24.3396 22.122 25.1816 22.122Z" fill="#333333"/>
<path d="M69.3355 57.4122C69.3355 66.8571 61.7924 74.4666 52.5452 74.4666C43.298 74.4666 35.7548 66.8571 35.7548 57.4122C35.7548 47.9672 43.298 40.3577 52.5452 40.3577C61.7924 40.3577 69.3355 47.9672 69.3355 57.4122Z" fill="white" stroke="white" stroke-width="3.9375"/>
<path d="M52.5452 76.4354C62.9056 76.4354 71.3043 67.9184 71.3043 57.4122C71.3043 46.906 62.9056 38.389 52.5452 38.389C42.1849 38.389 33.7861 46.906 33.7861 57.4122C33.7861 67.9184 42.1849 76.4354 52.5452 76.4354Z" stroke="#333333" stroke-width="1.96875"/>
<path d="M44.3484 66.968V66.0571C44.3484 63.5772 46.3587 61.5669 48.8387 61.5669H56.2271C58.72 61.5669 60.741 63.5877 60.741 66.0806V66.9915" stroke="#333333" stroke-width="1.96875"/>
<path fill-rule="evenodd" clip-rule="evenodd" d="M52.552 47.8328C55.6005 47.8328 58.0718 50.3041 58.0718 53.3527C58.0718 56.4012 55.6005 58.8725 52.552 58.8725C49.5035 58.8725 47.0322 56.4012 47.0322 53.3527C47.0322 50.3041 49.5035 47.8328 52.552 47.8328Z" stroke="#333333" stroke-width="1.96875"/>
</g>
<defs>
<clipPath id="clip0_389_2243">
<rect width="100" height="100" fill="white" transform="translate(0.200012 0.5)"/>
</clipPath>
</defs>
</svg>
