<svg width="101" height="101" viewBox="0 0 101 101" fill="none" xmlns="http://www.w3.org/2000/svg">
<g clip-path="url(#clip0_389_2298)">
<path d="M53.4002 99.0403C78.5514 99.0403 98.9405 78.6512 98.9405 53.5C98.9405 28.3488 78.5514 7.95972 53.4002 7.95972C28.249 7.95972 7.85991 28.3488 7.85991 53.5C7.85991 78.6512 28.249 99.0403 53.4002 99.0403Z" fill="#EEEEEE"/>
<path d="M43.7986 31.4436V20.265C43.7986 16.1491 47.1352 12.8125 51.251 12.8125H55.3277C59.4436 12.8125 62.7801 16.1491 62.7801 20.265V31.4436" stroke="#333333" stroke-width="1.96875"/>
<path fill-rule="evenodd" clip-rule="evenodd" d="M41.1178 26.2209C41.1258 25.8643 41.4173 25.5793 41.774 25.5793H88.3448C88.6758 25.5793 88.955 25.8259 88.996 26.1544L96.7015 87.9333C96.7503 88.3242 96.4459 88.6697 96.0519 88.6708L40.3898 88.8137C40.021 88.8147 39.7238 88.5115 39.7321 88.1428L41.1178 26.2209Z" fill="#FFE600"/>
<mask id="mask0_389_2298" style="mask-type:luminance" maskUnits="userSpaceOnUse" x="39" y="25" width="58" height="64">
<path fill-rule="evenodd" clip-rule="evenodd" d="M41.1178 26.2209C41.1258 25.8643 41.4173 25.5793 41.774 25.5793H88.3448C88.6758 25.5793 88.955 25.8259 88.996 26.1544L96.7015 87.9333C96.7503 88.3242 96.4459 88.6697 96.0519 88.6708L40.3898 88.8137C40.021 88.8147 39.7238 88.5115 39.7321 88.1428L41.1178 26.2209Z" fill="white"/>
</mask>
<g mask="url(#mask0_389_2298)">
<path d="M41.7739 29.5168H88.3448V21.6418H41.7739V29.5168ZM85.0888 26.6417L92.7942 88.4206L100.609 87.446L92.9032 25.667L85.0888 26.6417ZM96.0418 84.7333L40.3797 84.8762L40.3999 92.7512L96.062 92.6082L96.0418 84.7333ZM43.6686 88.2309L45.0543 26.309L37.1813 26.1328L35.7956 88.0547L43.6686 88.2309ZM40.3797 84.8762C42.224 84.8715 43.7098 86.3871 43.6686 88.2309L35.7956 88.0547C35.7378 90.6359 37.818 92.7578 40.3999 92.7512L40.3797 84.8762ZM92.7942 88.4206C92.5504 86.4658 94.0719 84.7383 96.0418 84.7333L96.062 92.6082C98.8199 92.6012 100.951 90.1827 100.609 87.446L92.7942 88.4206ZM88.3448 29.5168C86.6896 29.5168 85.2936 28.2841 85.0888 26.6417L92.9032 25.667C92.6164 23.3677 90.662 21.6418 88.3448 21.6418V29.5168ZM41.7739 21.6418C39.2769 21.6418 37.2372 23.6364 37.1813 26.1328L45.0543 26.309C45.0144 28.0922 43.5575 29.5168 41.7739 29.5168V21.6418Z" fill="white"/>
</g>
<path d="M30.055 27.3788C30.0541 27.1954 30.0523 26.8134 30.0486 26.0176L30.055 27.3788ZM30.055 27.3788L29.8038 27.3045C29.8823 27.3346 29.9634 27.3589 30.0466 27.377C30.0494 27.3776 30.0523 27.3783 30.055 27.3788ZM30.055 27.3788L30.0557 27.5481H30.0479M18.487 88.3719L18.4903 86.7693C18.49 86.9008 18.4893 87.2791 18.487 88.3719ZM20.5069 86.7037L31.763 27.5402L32.5731 27.5364L32.6005 27.5363L32.628 27.5361L32.6555 27.536L32.6832 27.5359L32.7109 27.5358L32.7387 27.5356L32.7666 27.5355L32.7946 27.5354L32.8227 27.5352L32.8509 27.5351L32.8791 27.535L32.9075 27.5348L32.9359 27.5347L32.9644 27.5346L32.9929 27.5344L33.0216 27.5343L33.0503 27.5342L33.0791 27.534L33.108 27.5339L33.137 27.5338L33.166 27.5336L33.1951 27.5335L33.2243 27.5334L33.2535 27.5332L33.2829 27.5331L33.3123 27.533L33.3417 27.5328L33.3712 27.5327L33.4008 27.5325L33.4305 27.5324L33.4602 27.5323L33.49 27.5321L35.4827 27.5229L38.8931 27.507L38.8795 28.2146L38.7411 35.3943C38.6268 41.3356 38.4748 49.2564 38.3242 57.1739C38.1737 65.0914 38.0244 73.006 37.9155 78.9349C37.8611 81.8992 37.8168 84.3679 37.7874 86.0926C37.7831 86.3421 37.7792 86.5762 37.7756 86.7941C37.3748 86.789 36.9252 86.7842 36.4372 86.7796C34.4437 86.7608 31.7845 86.7455 29.1272 86.7336C26.4691 86.7216 23.81 86.7129 21.8156 86.7072C21.3382 86.7059 20.899 86.7047 20.5069 86.7037ZM29.7609 27.53C29.8176 27.5385 29.8691 27.5444 29.8955 27.5473C29.9811 27.5568 30.0939 27.5671 30.2089 27.5745C30.3072 27.5808 30.4782 27.59 30.6487 27.5828C30.6502 27.5827 30.6518 27.5827 30.6537 27.5826C30.695 27.5809 30.8264 27.5756 30.9935 27.5437L29.7609 27.53Z" fill="white"/>
<path d="M30.055 27.3788C30.0541 27.1954 30.0523 26.8134 30.0486 26.0176L30.055 27.3788ZM30.055 27.3788L29.8038 27.3045C29.8823 27.3346 29.9634 27.3589 30.0466 27.377C30.0494 27.3776 30.0523 27.3783 30.055 27.3788ZM30.055 27.3788L30.0557 27.5481H30.0479M18.487 88.3719L18.4903 86.7693C18.49 86.9008 18.4893 87.2791 18.487 88.3719ZM20.5069 86.7037L31.763 27.5402L32.5731 27.5364L32.6005 27.5363L32.628 27.5361L32.6555 27.536L32.6832 27.5359L32.7109 27.5358L32.7387 27.5356L32.7666 27.5355L32.7946 27.5354L32.8227 27.5352L32.8509 27.5351L32.8791 27.535L32.9075 27.5348L32.9359 27.5347L32.9644 27.5346L32.9929 27.5344L33.0216 27.5343L33.0503 27.5342L33.0791 27.534L33.108 27.5339L33.137 27.5338L33.166 27.5336L33.1951 27.5335L33.2243 27.5334L33.2535 27.5332L33.2829 27.5331L33.3123 27.533L33.3417 27.5328L33.3712 27.5327L33.4008 27.5325L33.4305 27.5324L33.4602 27.5323L33.49 27.5321L35.4827 27.5229L38.8931 27.507L38.8795 28.2146L38.7411 35.3943C38.6268 41.3356 38.4748 49.2564 38.3242 57.1739C38.1737 65.0914 38.0244 73.006 37.9155 78.9349C37.8611 81.8992 37.8168 84.3679 37.7874 86.0926C37.7831 86.3421 37.7792 86.5762 37.7756 86.7941C37.3748 86.789 36.9252 86.7842 36.4372 86.7796C34.4437 86.7608 31.7845 86.7455 29.1272 86.7336C26.4691 86.7216 23.81 86.7129 21.8156 86.7072C21.3382 86.7059 20.899 86.7047 20.5069 86.7037ZM29.7609 27.53C29.8176 27.5385 29.8691 27.5444 29.8955 27.5473C29.9811 27.5568 30.0939 27.5671 30.2089 27.5745C30.3072 27.5808 30.4782 27.59 30.6487 27.5828C30.6502 27.5827 30.6518 27.5827 30.6537 27.5826C30.695 27.5809 30.8264 27.5756 30.9935 27.5437L29.7609 27.53Z" stroke="white" stroke-width="3.9375"/>
<path d="M87.3355 88.1957C87.4328 88.3269 87.4052 88.5121 87.274 88.6094C87.223 88.6471 87.1613 88.6675 87.0979 88.6675H18.4867C18.3234 88.6675 18.191 88.5351 18.191 88.3718C18.191 88.3532 18.1928 88.3347 18.1962 88.3165L24.8203 53.4999M46.5197 25.5793H30.0469C29.9638 25.5793 30.6978 25.6578 30.6542 25.587C30.6107 25.5162 30.5393 25.4671 30.4576 25.4515C30.2972 25.421 30.1424 25.5263 30.1119 25.6868L25.8191 48.2499" stroke="#333333" stroke-width="1.96875"/>
<path d="M30.0407 25.8199C30.0712 25.6594 30.2261 25.5541 30.3865 25.5846C30.4682 25.6001 30.5395 25.6493 30.5831 25.7201L34.6993 32.4091C34.7849 32.5482 34.9671 32.5915 35.1062 32.5059C35.1335 32.4891 35.1579 32.468 35.1784 32.4434L40.5888 25.9509C40.6933 25.8254 40.8798 25.8085 41.0053 25.9131C41.0234 25.9281 41.0396 25.9453 41.0536 25.9642" stroke="#333333" stroke-width="1.96875"/>
<path d="M94.2893 68.5937L88.996 26.1544C88.9551 25.8259 88.6759 25.5793 88.3448 25.5793H41.774C41.4172 25.5793 41.1258 25.8643 41.1179 26.2209L39.7321 88.1428C39.7239 88.5115 40.021 88.8147 40.3899 88.8137L96.052 88.6708C96.446 88.6697 96.7503 88.3242 96.7015 87.9333L96.1143 83.225M94.9442 73.8437L95.4353 77.7812" stroke="#333333" stroke-width="1.96875"/>
<path d="M18.4244 88.8154L30.4015 82.3093L39.7171 88.8154" stroke="#333333" stroke-width="1.96875"/>
<path d="M30.2544 82.3092L35.1625 32.688" stroke="#333333" stroke-width="1.96875"/>
<path d="M57.4613 31.4436V20.265C57.4613 16.1491 60.7979 12.8125 64.9137 12.8125H68.9904C73.1062 12.8125 76.4428 16.1491 76.4428 20.265V31.4436" stroke="#333333" stroke-width="1.96875"/>
<path fill-rule="evenodd" clip-rule="evenodd" d="M87.4574 39.7241C87.632 39.7241 87.7994 39.7937 87.9226 39.9175L102.193 54.2608C102.448 54.5172 102.448 54.9319 102.192 55.1877L90.1738 67.2059C89.917 67.4626 89.5006 67.4621 89.2445 67.2047L74.9592 52.8465C74.8463 52.733 74.7787 52.5821 74.7693 52.4222L74.0632 40.4188C74.0411 40.0419 74.3408 39.7241 74.7184 39.7241H87.4574Z" fill="white" stroke="#333333" stroke-width="1.96875"/>
<path d="M82.0478 49.8236C83.5037 49.8236 84.6839 48.6434 84.6839 47.1875C84.6839 45.7316 83.5037 44.5514 82.0478 44.5514C80.592 44.5514 79.4118 45.7316 79.4118 47.1875C79.4118 48.6434 80.592 49.8236 82.0478 49.8236Z" fill="white" stroke="#333333" stroke-width="1.96875"/>
<path d="M71.9517 25.5288C74.9091 21.3886 79.3041 23.849 80.8573 26.7945C83.1872 31.2127 83.7697 37.1037 82.0223 47.413" stroke="#333333" stroke-width="1.96875"/>
<path fill-rule="evenodd" clip-rule="evenodd" d="M55.1195 63.1492C55.8948 64.4529 56.9707 65.5629 59.6584 65.5773C63.2203 65.7231 64.3628 63.81 64.8118 62.755C65.2614 61.6994 65.8323 59.5176 69.5047 59.5945C72.1107 59.649 73.3808 61.6828 73.8998 62.8592C74.0885 63.2886 74.2066 63.7468 74.2665 64.2164L74.3534 64.9138L75.1866 71.6011L75.7038 80.1892C75.7038 80.1892 76.4322 80.4161 76.4322 82.025V87.0851C76.4322 88.0099 75.6215 89.2602 74.4529 89.2602H20.8392C13.9456 89.2602 7.62025 87.1042 6.37233 83.8543C6.22654 83.4746 6.15005 83.08 6.15005 82.6722C6.15005 80.0772 7.57627 78.451 8.53038 77.6526C8.95985 77.2933 9.45175 77.0367 9.98255 76.8797C11.57 76.4087 15.9099 75.0953 18.8797 73.9324C20.0915 73.4582 22.5781 72.3312 25.5634 70.9201C25.5634 70.9201 39.9461 63.982 44.438 61.3143C44.438 61.3143 44.7661 61.1068 44.8971 61.0181C49.5953 57.8175 53.1881 54.2479 54.7818 52.5579C55.3045 52.0033 56.1808 52.0831 56.6084 52.7194C57.172 53.5574 57.8233 54.8134 58.0346 56.3572C58.432 59.517 56.4242 62.6366 54.9282 63.3316" fill="white"/>
<path d="M55.1195 63.1492C55.8948 64.4529 56.9707 65.5629 59.6584 65.5773C63.2203 65.7231 64.3628 63.81 64.8118 62.755C65.2614 61.6994 65.8323 59.5176 69.5047 59.5945C72.1107 59.649 73.3807 61.6828 73.8998 62.8592C74.0885 63.2886 74.2065 63.7468 74.2665 64.2164L74.3534 64.9138L75.1866 71.6011L75.7038 80.1892C75.7038 80.1892 76.4322 80.4161 76.4322 82.025V87.0851C76.4322 88.0099 75.6215 89.2602 74.4529 89.2602H20.8392C13.9456 89.2602 7.62025 87.1042 6.37233 83.8543C6.22654 83.4746 6.15005 83.08 6.15005 82.6722C6.15005 80.0772 7.57627 78.451 8.53038 77.6526C8.95985 77.2933 9.45174 77.0367 9.98255 76.8797C11.57 76.4087 15.9099 75.0953 18.8797 73.9324C20.0915 73.4582 22.5781 72.3312 25.5634 70.9201C25.5634 70.9201 39.9461 63.982 44.438 61.3143C44.438 61.3143 44.7661 61.1068 44.8971 61.0181C49.5953 57.8175 53.1881 54.2479 54.7818 52.5579C55.3045 52.0033 56.1808 52.0831 56.6084 52.7194C57.172 53.5574 57.8233 54.8134 58.0346 56.3572C58.432 59.517 56.4242 62.6366 54.9282 63.3316" stroke="#333333" stroke-width="1.96875"/>
<path d="M75.854 80.1892C75.7012 80.2212 64.6487 80.254 64.5026 80.2875C61.9539 80.8718 62.3309 81.6006 61.0677 82.7197C59.8328 83.8138 58.5151 84.2823 57.4452 84.1176L6.72905 84.859" stroke="#333333" stroke-width="1.96875"/>
<path d="M18.4008 74.0699C20.6543 75.2347 23.2367 75.4358 25.6243 74.6307C30.8956 72.854 42.6624 67.7983 46.6037 65.557C47.9998 64.7627 48.204 63.0255 48.6711 61.8198C48.9826 61.0161 49.507 60.3152 50.2148 59.8829C50.9799 59.4154 52.02 59.177 53.1208 60.089C54.141 60.9345 54.5784 62.1906 55.2456 63.2981" stroke="#333333" stroke-width="1.96875"/>
<path d="M32.0298 74.3148L37.9183 82.4658L49.0803 82.3082L37.5705 72.1518L32.0298 74.3148Z" fill="#FFE600" stroke="white" stroke-width="3.9375"/>
<path fill-rule="evenodd" clip-rule="evenodd" d="M36.9218 84.4487L30.412 75.4377L28.9439 73.4058L37.9726 69.8811L54.2048 84.2047L36.9218 84.4487Z" stroke="#333333" stroke-width="1.96875"/>
<path d="M10.8011 76.561C11.0689 76.8698 11.3748 77.1812 11.7199 77.4736C12.1682 77.8538 12.6818 78.1993 13.2625 78.4596C15.8347 79.614 17.5502 78.6379 22.4376 79.9687C24.1828 80.4446 25.4911 81.7577 26.4511 83.2491C26.7031 83.6405 26.9317 84.0444 27.1369 84.4488" stroke="#333333" stroke-width="1.96875"/>
<path d="M41.5745 67.0529L37.4957 60.7074" stroke="#333333" stroke-width="1.96875"/>
<path d="M35.4592 69.8814L31.3804 63.5359" stroke="#333333" stroke-width="1.96875"/>
<path d="M28.9787 73.3502L24.8999 67.0046" stroke="#333333" stroke-width="1.96875"/>
</g>
<defs>
<clipPath id="clip0_389_2298">
<rect width="100" height="100" fill="white" transform="translate(0.399948 0.5)"/>
</clipPath>
</defs>
</svg>
