<svg width="101" height="101" viewBox="0 0 101 101" fill="none" xmlns="http://www.w3.org/2000/svg">
<g clip-path="url(#clip0_389_2248)">
<path d="M53.8002 99.0403C78.9515 99.0403 99.3405 78.6512 99.3405 53.5C99.3405 28.3488 78.9515 7.95972 53.8002 7.95972C28.649 7.95972 8.25995 28.3488 8.25995 53.5C8.25995 78.6512 28.649 99.0403 53.8002 99.0403Z" fill="#EEEEEE"/>
<path fill-rule="evenodd" clip-rule="evenodd" d="M16.138 82.2901C15.4132 82.2901 14.8255 81.7025 14.8255 80.9776V26.1589C14.8255 25.434 15.4132 24.8464 16.138 24.8464H27.739H33.4373H90.1047C90.8295 24.8464 91.4172 25.434 91.4172 26.1589V80.9776C91.4172 81.7025 90.8295 82.2901 90.1047 82.2901H16.138Z" fill="white"/>
<path fill-rule="evenodd" clip-rule="evenodd" d="M65.2515 49.9179V24.7458H40.9316V32.9242V49.9179L47.0879 43.9529L53.0334 49.9179L59.2922 43.9529L65.2515 49.9179ZM22.3019 72.1194H38.5465V61.6967H22.3019V72.1194Z" fill="#FFE600"/>
<mask id="mask0_389_2248" style="mask-type:luminance" maskUnits="userSpaceOnUse" x="22" y="24" width="44" height="49">
<path fill-rule="evenodd" clip-rule="evenodd" d="M65.2515 49.9179V24.7458H40.9316V32.9242V49.9179L47.0879 43.9529L53.0334 49.9179L59.2922 43.9529L65.2515 49.9179ZM22.3019 72.1194H38.5465V61.6967H22.3019V72.1194Z" fill="white"/>
</mask>
<g mask="url(#mask0_389_2248)">
<path d="M65.2515 24.7458H69.189V20.8083H65.2515V24.7458ZM65.2515 49.9179L62.466 52.7007L69.189 59.4301V49.9179H65.2515ZM40.9316 24.7458V20.8083H36.9941V24.7458H40.9316ZM40.9316 49.9179H36.9941V59.2155L43.6715 52.7458L40.9316 49.9179ZM47.0879 43.9529L49.8767 41.1732L47.1361 38.4237L44.348 41.1251L47.0879 43.9529ZM53.0334 49.9179L50.2446 52.6975L52.9627 55.4245L55.7498 52.7682L53.0334 49.9179ZM59.2922 43.9529L62.0778 41.17L59.3597 38.4493L56.5757 41.1026L59.2922 43.9529ZM38.5465 72.1194V76.0569H42.484V72.1194H38.5465ZM22.3019 72.1194H18.3644V76.0569H22.3019V72.1194ZM38.5465 61.6967H42.484V57.7592H38.5465V61.6967ZM22.3019 61.6967V57.7592H18.3644V61.6967H22.3019ZM61.314 24.7458V49.9179H69.189V24.7458H61.314ZM40.9316 28.6833H65.2515V20.8083H40.9316V28.6833ZM44.8691 32.9242V24.7458H36.9941V32.9242H44.8691ZM44.8691 49.9179V32.9242H36.9941V49.9179H44.8691ZM44.348 41.1251L38.1916 47.09L43.6715 52.7458L49.8278 46.7808L44.348 41.1251ZM55.8221 47.1381L49.8767 41.1732L44.2991 46.7327L50.2446 52.6975L55.8221 47.1381ZM56.5757 41.1026L50.3169 47.0676L55.7498 52.7682L62.0087 46.8033L56.5757 41.1026ZM68.037 47.1349L62.0778 41.17L56.5067 46.7359L62.466 52.7007L68.037 47.1349ZM38.5465 68.1819H22.3019V76.0569H38.5465V68.1819ZM34.609 61.6967V72.1194H42.484V61.6967H34.609ZM22.3019 65.6342H38.5465V57.7592H22.3019V65.6342ZM26.2394 72.1194V61.6967H18.3644V72.1194H26.2394Z" fill="white"/>
</g>
<path d="M22.3025 72.1194H38.5471V61.6966H22.3025V72.1194Z" stroke="#333333" stroke-width="1.96875"/>
<path d="M91.407 76.7322H14.8255V82.2614H91.407V76.7322Z" fill="#EEEEEE"/>
<path fill-rule="evenodd" clip-rule="evenodd" d="M65.2518 24.7458V49.9178L59.2925 43.9529L53.0337 49.9178L47.0882 43.9529L40.9319 49.9178V32.9242V24.7458H65.2518Z" stroke="#333333" stroke-width="1.96875"/>
<path d="M14.8255 45.625V80.9777C14.8255 81.7025 15.4132 82.2902 16.138 82.2902H90.1047C90.8295 82.2902 91.4172 81.7025 91.4172 80.9776V73.1875M14.8255 40.375V26.1589C14.8255 25.4341 15.4132 24.8464 16.138 24.8464H27.739H33.4373H90.1047C90.8295 24.8464 91.4172 25.4341 91.4172 26.1589V58.75M91.4172 64V67.9375" stroke="#333333" stroke-width="1.96875"/>
<path d="M91.4074 33.2771C96.1191 33.2771 99.9387 29.4575 99.9387 24.7458C99.9387 20.0342 96.1191 16.2146 91.4074 16.2146C86.6957 16.2146 82.8762 20.0342 82.8762 24.7458C82.8762 29.4575 86.6957 33.2771 91.4074 33.2771Z" fill="white" stroke="white" stroke-width="3.9375"/>
<path d="M91.4074 35.2458C97.2064 35.2458 101.907 30.5448 101.907 24.7458C101.907 18.9469 97.2064 14.2458 91.4074 14.2458C85.6084 14.2458 80.9074 18.9469 80.9074 24.7458C80.9074 30.5448 85.6084 35.2458 91.4074 35.2458Z" stroke="#333333" stroke-width="1.96875"/>
<path d="M86.9135 24.9334L89.7958 27.9334L95.9208 21.5584" stroke="#333333" stroke-width="1.96875"/>
</g>
<defs>
<clipPath id="clip0_389_2248">
<rect width="100" height="100" fill="white" transform="translate(0.799988 0.5)"/>
</clipPath>
</defs>
</svg>
