<svg width="101" height="101" viewBox="0 0 101 101" fill="none" xmlns="http://www.w3.org/2000/svg">
<path d="M53.6002 99.0403C78.7514 99.0403 99.1405 78.6512 99.1405 53.5C99.1405 28.3488 78.7514 7.95972 53.6002 7.95972C28.449 7.95972 8.05994 28.3488 8.05994 53.5C8.05994 78.6512 28.449 99.0403 53.6002 99.0403Z" fill="#EEEEEE"/>
<path d="M75.6006 40.5441L62.2976 13.075C61.3498 11.1179 58.9948 10.2996 57.0376 11.2475L21.7723 28.3262C19.8151 29.274 18.9969 31.629 19.9447 33.5862L33.2477 61.0552C34.1956 63.0124 36.5506 63.8306 38.5078 62.8828L73.7731 45.8041C75.7302 44.8563 76.5485 42.5013 75.6006 40.5441Z" fill="white" stroke="#333333" stroke-width="1.96875"/>
<path d="M85.8653 43.7441L72.5623 16.275C71.6145 14.3178 69.2595 13.4996 67.3023 14.4474L32.037 31.5261C30.0798 32.474 29.2616 34.8289 30.2094 36.7861L43.5124 64.2552C44.4603 66.2124 46.8153 67.0306 48.7725 66.0827L84.0378 49.0041C85.9949 48.0562 86.8132 45.7012 85.8653 43.7441Z" fill="white" stroke="#333333" stroke-width="1.96875"/>
<path d="M16.85 89.3575V34.8162H79.058C83.4363 34.8162 86.9857 38.3655 86.9857 42.7438V81.4298C86.9857 85.8082 83.4363 89.3575 79.058 89.3575H16.85Z" fill="#FFE600" stroke="white" stroke-width="3.9375"/>
<path d="M79.058 91.3262H16.6806C15.6868 91.3262 14.8812 90.5206 14.8812 89.5269V47.5938M14.8812 42.3438V34.6468C14.8812 33.653 15.6868 32.8474 16.6806 32.8474H79.058C84.5236 32.8474 88.9544 37.2782 88.9544 42.7438V81.4298C88.9544 81.7486 88.9393 82.064 88.9098 82.3751M87.0688 87.2419C86.3546 88.2245 85.4641 89.0706 84.4438 89.7338" stroke="#333333" stroke-width="1.96875"/>
<path d="M51.0625 54.9634H91.0162V70.3748H51.0625C46.8067 70.3748 43.3568 66.9248 43.3568 62.6691C43.3568 58.4134 46.8067 54.9634 51.0625 54.9634Z" fill="white" stroke="white" stroke-width="3.9375"/>
<path d="M41.3881 62.669C41.3881 57.326 45.7195 52.9946 51.0626 52.9946H92.985V72.3434H51.0626C45.7195 72.3434 41.3881 68.012 41.3881 62.669Z" stroke="#333333" stroke-width="1.96875"/>
<path d="M51.9185 65.1564C53.2923 65.1564 54.4059 64.0428 54.4059 62.669C54.4059 61.2953 53.2923 60.1816 51.9185 60.1816C50.5447 60.1816 49.431 61.2953 49.431 62.669C49.431 64.0428 50.5447 65.1564 51.9185 65.1564Z" fill="#333333"/>
</svg>
