<svg width="100" height="101" viewBox="0 0 100 101" fill="none" xmlns="http://www.w3.org/2000/svg">
<g clip-path="url(#clip0_389_2280)">
<mask id="mask0_389_2280" style="mask-type:luminance" maskUnits="userSpaceOnUse" x="0" y="1" width="106" height="105">
<path d="M105.5 1H0.499977V106H105.5V1Z" fill="white"/>
</mask>
<g mask="url(#mask0_389_2280)">
<path d="M53.0002 99.0403C78.1515 99.0403 98.5405 78.6512 98.5405 53.5C98.5405 28.3488 78.1515 7.95972 53.0002 7.95972C27.849 7.95972 7.45994 28.3488 7.45994 53.5C7.45994 78.6512 27.849 99.0403 53.0002 99.0403Z" fill="#EEEEEE"/>
<path d="M53.4685 61.3597C67.3323 61.3597 78.571 49.9627 78.571 35.9038C78.571 21.8449 67.3323 10.4479 53.4685 10.4479C39.6048 10.4479 28.366 21.8449 28.366 35.9038C28.366 49.9627 39.6048 61.3597 53.4685 61.3597Z" fill="white"/>
<path d="M70.2585 35.9045C70.2585 45.3495 62.7153 52.9589 53.4681 52.9589C44.2209 52.9589 36.6777 45.3495 36.6777 35.9045C36.6777 26.4596 44.2209 18.8501 53.4681 18.8501C62.7153 18.8501 70.2585 26.4596 70.2585 35.9045Z" fill="#FFE600" stroke="white" stroke-width="3.9375"/>
<path d="M58.2569 30.6622C57.5663 29.0934 56.0089 28.1279 53.2822 28.1279C50.4262 28.1279 48.304 29.742 48.304 32.1079C48.304 35.0402 50.035 35.6343 52.6637 36.3341C52.8295 36.3795 52.995 36.4248 53.1595 36.4705L53.4868 36.5626C55.6025 37.1668 58.2569 37.752 58.4905 40.1052C58.7242 42.4585 56.8635 44.555 53.0925 44.5463C50.4262 44.5402 48.1737 43.2827 47.7697 41.297" stroke="#333333" stroke-width="1.96875"/>
<path d="M53.363 25.2294V28.1257" stroke="#333333" stroke-width="1.96875"/>
<path d="M53.363 44.7469V47.6432" stroke="#333333" stroke-width="1.96875"/>
<path d="M53.4681 54.9265C63.8284 54.9265 72.2272 46.4096 72.2272 35.9033C72.2272 25.3971 63.8284 16.8801 53.4681 16.8801C43.1077 16.8801 34.709 25.3971 34.709 35.9033C34.709 46.4096 43.1077 54.9265 53.4681 54.9265Z" stroke="#333333" stroke-width="1.96875"/>
<mask id="mask1_389_2280" style="mask-type:luminance" maskUnits="userSpaceOnUse" x="32" y="85" width="51" height="11">
<path d="M81.2558 85.8816H33.6758C32.9509 85.8816 32.3633 86.4692 32.3633 87.1941V94.5704C32.3633 95.2953 32.9509 95.8829 33.6758 95.8829H81.2558C81.9806 95.8829 82.5683 95.2953 82.5683 94.5704V87.1941C82.5683 86.4692 81.9806 85.8816 81.2558 85.8816Z" fill="white"/>
</mask>
<g mask="url(#mask1_389_2280)">
<path d="M81.2558 85.8816H33.6758C32.9509 85.8816 32.3633 86.4692 32.3633 87.1941V94.5704C32.3633 95.2953 32.9509 95.8829 33.6758 95.8829H81.2558C81.9806 95.8829 82.5683 95.2953 82.5683 94.5704V87.1941C82.5683 86.4692 81.9806 85.8816 81.2558 85.8816Z" fill="white" stroke="white" stroke-width="5.25"/>
</g>
<path d="M81.2558 85.8816H33.6758C32.9509 85.8816 32.3633 86.4692 32.3633 87.1941V94.5704C32.3633 95.2953 32.9509 95.8829 33.6758 95.8829H81.2558C81.9806 95.8829 82.5683 95.2953 82.5683 94.5704V87.1941C82.5683 86.4692 81.9806 85.8816 81.2558 85.8816Z" stroke="#333333" stroke-width="1.96875"/>
<mask id="mask2_389_2280" style="mask-type:luminance" maskUnits="userSpaceOnUse" x="24" y="75" width="51" height="11">
<path d="M73.2608 75.8812H25.6808C24.956 75.8812 24.3683 76.4689 24.3683 77.1937V84.57C24.3683 85.2949 24.956 85.8825 25.6808 85.8825H73.2608C73.9857 85.8825 74.5733 85.2949 74.5733 84.57V77.1937C74.5733 76.4689 73.9857 75.8812 73.2608 75.8812Z" fill="white"/>
</mask>
<g mask="url(#mask2_389_2280)">
<path d="M73.2608 75.8812H25.6808C24.956 75.8812 24.3683 76.4689 24.3683 77.1937V84.57C24.3683 85.2949 24.956 85.8825 25.6808 85.8825H73.2608C73.9857 85.8825 74.5733 85.2949 74.5733 84.57V77.1937C74.5733 76.4689 73.9857 75.8812 73.2608 75.8812Z" fill="white" stroke="white" stroke-width="5.25"/>
</g>
<path d="M73.2608 75.8812H25.6808C24.956 75.8812 24.3683 76.4689 24.3683 77.1937V84.57C24.3683 85.2949 24.956 85.8825 25.6808 85.8825H73.2608C73.9857 85.8825 74.5733 85.2949 74.5733 84.57V77.1937C74.5733 76.4689 73.9857 75.8812 73.2608 75.8812Z" stroke="#333333" stroke-width="1.96875"/>
<mask id="mask3_389_2280" style="mask-type:luminance" maskUnits="userSpaceOnUse" x="29" y="65" width="51" height="11">
<path d="M78.5907 65.8796H31.0107C30.2858 65.8796 29.6982 66.4673 29.6982 67.1921V74.5684C29.6982 75.2933 30.2858 75.8809 31.0107 75.8809H78.5907C79.3156 75.8809 79.9032 75.2933 79.9032 74.5684V67.1921C79.9032 66.4673 79.3156 65.8796 78.5907 65.8796Z" fill="white"/>
</mask>
<g mask="url(#mask3_389_2280)">
<path d="M78.5907 65.8796H31.0107C30.2858 65.8796 29.6982 66.4673 29.6982 67.1921V74.5684C29.6982 75.2933 30.2858 75.8809 31.0107 75.8809H78.5907C79.3156 75.8809 79.9032 75.2933 79.9032 74.5684V67.1921C79.9032 66.4673 79.3156 65.8796 78.5907 65.8796Z" fill="white" stroke="white" stroke-width="5.25"/>
</g>
<path d="M78.5907 65.8796H31.0107C30.2858 65.8796 29.6982 66.4673 29.6982 67.1921V74.5684C29.6982 75.2933 30.2858 75.8809 31.0107 75.8809H78.5907C79.3156 75.8809 79.9032 75.2933 79.9032 74.5684V67.1921C79.9032 66.4673 79.3156 65.8796 78.5907 65.8796Z" stroke="#333333" stroke-width="1.96875"/>
<path d="M30.914 78.2166V83.5469" stroke="#333333" stroke-width="1.96875"/>
<path d="M38.4619 78.2175V83.5478" stroke="#333333" stroke-width="1.96875"/>
<path d="M46.0097 78.2175V83.5478" stroke="#333333" stroke-width="1.96875"/>
<path d="M53.5576 78.2175V83.5478" stroke="#333333" stroke-width="1.96875"/>
<path d="M61.1064 78.2175V83.5478" stroke="#333333" stroke-width="1.96875"/>
<path d="M68.6543 78.2175V83.5478" stroke="#333333" stroke-width="1.96875"/>
<path d="M38.9101 88.238V93.5683" stroke="#333333" stroke-width="1.96875"/>
<path d="M46.458 88.2393V93.5696" stroke="#333333" stroke-width="1.96875"/>
<path d="M54.0058 88.2393V93.5696" stroke="#333333" stroke-width="1.96875"/>
<path d="M61.5537 88.2393V93.5696" stroke="#333333" stroke-width="1.96875"/>
<path d="M69.1013 88.2392V93.5695" stroke="#333333" stroke-width="1.96875"/>
<path d="M76.6492 88.2392V93.5695" stroke="#333333" stroke-width="1.96875"/>
<path d="M36.2451 68.1995V73.5297" stroke="#333333" stroke-width="1.96875"/>
<path d="M43.7929 68.2007V73.5309" stroke="#333333" stroke-width="1.96875"/>
<path d="M51.3408 68.2007V73.5309" stroke="#333333" stroke-width="1.96875"/>
<path d="M58.8886 68.2007V73.5309" stroke="#333333" stroke-width="1.96875"/>
<path d="M66.4365 68.2007V73.5309" stroke="#333333" stroke-width="1.96875"/>
<path d="M73.9841 68.2006V73.5308" stroke="#333333" stroke-width="1.96875"/>
<path d="M34.9221 18.7493C39.5127 13.6484 46.1222 10.448 53.4688 10.448C67.3325 10.448 78.5713 21.845 78.5713 35.9039C78.5713 41.3575 76.8801 46.4106 74.0006 50.5532M31.63 23.3431C29.5526 27.0493 28.3662 31.3361 28.3662 35.9039C28.3662 49.9628 39.605 61.3598 53.4688 61.3598C56.6926 61.3598 59.7745 60.7435 62.6061 59.6208M67.4381 57.0572C68.5175 56.3227 69.5376 55.5055 70.4896 54.6145" stroke="#333333" stroke-width="1.96875"/>
<path d="M74 31.8743C78.7117 31.8743 82.5312 28.0547 82.5312 23.343C82.5312 18.6313 78.7117 14.8118 74 14.8118C69.2883 14.8118 65.4687 18.6313 65.4687 23.343C65.4687 28.0547 69.2883 31.8743 74 31.8743Z" fill="white" stroke="white" stroke-width="3.9375"/>
<path d="M74 33.843C79.799 33.843 84.5 29.142 84.5 23.343C84.5 17.544 79.799 12.843 74 12.843C68.201 12.843 63.5 17.544 63.5 23.343C63.5 29.142 68.201 33.843 74 33.843Z" stroke="#333333" stroke-width="1.96875"/>
<path d="M74.0004 17.6279V28.1279M74.0004 28.1279L70.0635 24.3098M74.0004 28.1279L77.9385 24.3098" stroke="#333333" stroke-width="1.96875"/>
</g>
</g>
<defs>
<clipPath id="clip0_389_2280">
<rect width="100" height="100" fill="white" transform="translate(-2.28882e-05 0.5)"/>
</clipPath>
</defs>
</svg>
